<svg width="51" height="51" viewBox="0 0 51 51" fill="none" xmlns="http://www.w3.org/2000/svg">
<path d="M22.9366 41.7029C19.2752 41.714 15.7434 40.3486 13.0416 37.8775C10.3398 35.4064 8.66543 32.0102 8.35051 28.3623C8.03559 24.7145 9.10315 21.0816 11.3415 18.184C13.5798 15.2864 16.8253 13.336 20.4345 12.7194C32.3198 10.4257 35.4475 9.34144 39.6178 4.17029C41.7029 8.34057 43.7881 12.8862 43.7881 20.8514C43.7881 32.3197 33.8211 41.7029 22.9366 41.7029Z" stroke="#B8D332" stroke-width="4.17029" stroke-linecap="round" stroke-linejoin="round"/>
<path d="M4.17041 43.788C4.17041 37.5326 8.02793 32.6117 14.7629 31.2772C19.809 30.2763 25.0218 27.1069 27.107 25.0217" stroke="#B8D332" stroke-width="4.17029" stroke-linecap="round" stroke-linejoin="round"/>
</svg>
