<svg width="51" height="51" viewBox="0 0 51 51" fill="none" xmlns="http://www.w3.org/2000/svg">
<path d="M33.3623 43.788V39.6177C33.3623 37.4056 32.4836 35.2842 30.9194 33.72C29.3552 32.1558 27.2338 31.2771 25.0217 31.2771H12.5109C10.2988 31.2771 8.17735 32.1558 6.61319 33.72C5.04902 35.2842 4.17029 37.4056 4.17029 39.6177V43.788" stroke="#B8D332" stroke-width="4.17029" stroke-linecap="round" stroke-linejoin="round"/>
<path d="M18.7662 22.9365C23.3726 22.9365 27.1068 19.2023 27.1068 14.5959C27.1068 9.98957 23.3726 6.25537 18.7662 6.25537C14.1599 6.25537 10.4257 9.98957 10.4257 14.5959C10.4257 19.2023 14.1599 22.9365 18.7662 22.9365Z" stroke="#B8D332" stroke-width="4.17029" stroke-linecap="round" stroke-linejoin="round"/>
<path d="M45.8732 43.788V39.6177C45.8718 37.7697 45.2568 35.9745 44.1246 34.5139C42.9923 33.0534 41.4071 32.0102 39.6178 31.5482" stroke="#B8D332" stroke-width="4.17029" stroke-linecap="round" stroke-linejoin="round"/>
<path d="M33.3623 6.52649C35.1564 6.98585 36.7466 8.02925 37.8821 9.49221C39.0177 10.9552 39.6341 12.7545 39.6341 14.6064C39.6341 16.4584 39.0177 18.2577 37.8821 19.7206C36.7466 21.1836 35.1564 22.227 33.3623 22.6864" stroke="#B8D332" stroke-width="4.17029" stroke-linecap="round" stroke-linejoin="round"/>
</svg>
