<svg width="620" height="806" viewBox="0 0 620 806" fill="none" xmlns="http://www.w3.org/2000/svg">
<g opacity="0.4">
<rect x="-0.702155" y="0.0835401" width="997.71" height="209.164" transform="matrix(-0.785695 -0.618614 -0.618614 0.785695 590.489 617.4)" fill="white" stroke="black"/>
<path d="M591.382 618.209C587.882 615.454 582.749 614.975 576.34 616.627C569.941 618.276 562.365 622.03 554.098 627.586C537.568 638.696 518.373 656.949 500.445 679.719C482.518 702.488 469.278 725.431 462.356 744.106C458.894 753.446 457.024 761.691 456.922 768.299C456.82 774.916 458.49 779.793 461.99 782.548C465.489 785.304 470.622 785.783 477.03 784.132C483.43 782.482 491.006 778.729 499.273 773.172C515.802 762.062 534.998 743.809 552.926 721.039C570.853 698.27 584.093 675.327 591.015 656.652C594.476 647.313 596.347 639.067 596.449 632.46C596.551 625.842 594.881 620.965 591.382 618.209Z" fill="white" stroke="black"/>
<ellipse cx="5.08462" cy="11.8641" rx="5.08462" ry="11.8641" transform="matrix(-0.785695 -0.618614 -0.618614 0.785695 536.217 699.254)" fill="black"/>
<path d="M528.793 697.722C526.226 675.939 561.15 636.94 593.599 623.631" stroke="black" stroke-linecap="round"/>
<path d="M531.456 699.819C546.842 680.279 559.566 672.337 577.359 679.875" stroke="black" stroke-linecap="round"/>
<path d="M524.78 707.506C527.347 729.289 494.804 768.005 462.354 781.313" stroke="black" stroke-linecap="round"/>
<path d="M524.06 705.547C507.198 692.27 515.308 665.532 532.366 646.605" stroke="black" stroke-linecap="round"/>
<path d="M520.283 712.202C502.269 735.081 486.486 737.755 468.976 732.597" stroke="black" stroke-linecap="round"/>
<path d="M528.309 703.814C540.776 707.158 544.452 723.654 534.937 739.232" stroke="black" stroke-linecap="round"/>
</g>
</svg>
