<svg width="377" height="638" viewBox="0 0 377 638" fill="none" xmlns="http://www.w3.org/2000/svg">
<rect x="-0.101037" y="0.699851" width="806.346" height="168.895" transform="matrix(-0.800888 0.598814 0.598814 0.800888 251.195 18.4582)" fill="white" stroke="black"/>
<path d="M252.095 18.6594C249.246 20.7896 247.802 24.6604 247.751 29.997C247.7 35.3241 249.042 42.0138 251.65 49.6264C256.862 64.8459 267.094 83.6449 281.118 102.402C295.142 121.159 310.28 136.289 323.403 145.594C329.967 150.248 336.004 153.427 341.128 154.886C346.261 156.346 350.383 156.055 353.232 153.925C356.081 151.795 357.525 147.924 357.576 142.588C357.627 137.26 356.285 130.571 353.677 122.958C348.465 107.739 338.234 88.9396 324.209 70.1828C310.185 51.426 295.048 36.2954 281.924 26.9908C275.36 22.3368 269.323 19.1571 264.199 17.6991C259.066 16.2385 254.944 16.5292 252.095 18.6594Z" fill="white" stroke="black"/>
<ellipse cx="4.11035" cy="9.59083" rx="4.11035" ry="9.59083" transform="matrix(-0.800888 0.598814 0.598814 0.800888 303.771 78.6194)" fill="black"/>
<path d="M301.022 84.0961C283.476 81.5428 260.331 46.1133 256.728 17.9907" stroke="black" stroke-linecap="round"/>
<path d="M303.217 82.4553C291.178 66.3533 287.639 54.7561 297.248 42.4399" stroke="black" stroke-linecap="round"/>
<path d="M307.823 89.2762C325.369 91.8295 348.791 125.341 352.393 153.464" stroke="black" stroke-linecap="round"/>
<path d="M306.142 89.4289C292.247 99.8175 273.065 87.8907 261.856 70.6106" stroke="black" stroke-linecap="round"/>
<path d="M310.548 93.7705C324.644 112.624 323.43 125.507 315.739 138.101" stroke="black" stroke-linecap="round"/>
<path d="M305.678 85.7482C310.898 76.7131 324.547 77.2947 334.721 87.9834" stroke="black" stroke-linecap="round"/>
</svg>
