<svg width="40" height="325" viewBox="0 0 40 325" fill="none" xmlns="http://www.w3.org/2000/svg">
<rect x="-0.101037" y="0.699851" width="434.677" height="69.9535" transform="matrix(-0.800888 0.598814 0.598814 0.800888 -12.5063 7.25478)" fill="white" stroke="black"/>
<path d="M-11.6068 7.4561C-12.6911 8.26692 -13.2834 9.77201 -13.3043 11.9602C-13.3251 14.1391 -12.7753 16.8981 -11.6921 20.0609C-9.52741 26.3812 -5.27146 34.2061 0.572416 42.022C6.41635 49.8381 12.7179 56.1334 18.1679 59.9974C20.8952 61.9311 23.3859 63.2386 25.4817 63.835C27.5866 64.4339 29.1976 64.2915 30.282 63.4808C31.3665 62.6699 31.9594 61.1646 31.9803 58.976C32.0011 56.7972 31.4506 54.0387 30.3673 50.876C28.2026 44.5556 23.9467 36.7308 18.1028 28.9148C12.2589 21.0989 5.95732 14.8035 0.507355 10.9395C-2.21987 9.00596 -4.70997 7.69764 -6.80571 7.10131C-8.91077 6.50233 -10.5224 6.64528 -11.6068 7.4561Z" fill="white" stroke="black"/>
<ellipse cx="1.65407" cy="3.8595" rx="1.65407" ry="3.8595" transform="matrix(-0.800888 0.598814 0.598814 0.800888 9.69385 32.625)" fill="black"/>
<path d="M8.58628 34.8311C1.52542 33.8036 -7.78851 19.5462 -9.23828 8.22925" stroke="black" stroke-width="0.5" stroke-linecap="round"/>
<path d="M9.46969 34.1697C4.62509 27.69 3.20101 23.0231 7.06771 18.0669" stroke="black" stroke-width="0.5" stroke-linecap="round"/>
<path d="M11.3221 36.9133C18.3829 37.9408 27.8083 51.4264 29.2581 62.7434" stroke="black" stroke-width="0.5" stroke-linecap="round"/>
<path d="M10.6471 36.9754C5.05578 41.1559 -2.66337 36.3564 -7.17419 29.4026" stroke="black" stroke-width="0.5" stroke-linecap="round"/>
<path d="M12.422 38.7222C18.0946 46.3089 17.6059 51.4934 14.5107 56.5613" stroke="black" stroke-width="0.5" stroke-linecap="round"/>
<path d="M10.4603 35.4941C12.5608 31.8582 18.0536 32.0922 22.1477 36.3936" stroke="black" stroke-width="0.5" stroke-linecap="round"/>
</svg>
