<svg width="162" height="333" viewBox="0 0 162 333" fill="none" xmlns="http://www.w3.org/2000/svg">
<rect x="9.73453" y="269.75" width="434.677" height="69.9535" transform="rotate(-38.215 9.73453 269.75)" fill="white" stroke="black"/>
<path d="M9.34263 270.059C10.4065 269.221 12.0135 269.039 14.1326 269.585C16.2426 270.129 18.7653 271.374 21.54 273.239C27.0847 276.966 33.5414 283.102 39.5785 290.769C45.6157 298.437 50.0656 306.153 52.3873 312.418C53.5492 315.553 54.1676 318.297 54.2012 320.476C54.2349 322.664 53.6804 324.183 52.6166 325.021C51.5528 325.858 49.9452 326.041 47.8259 325.495C45.7159 324.951 43.1939 323.706 40.4193 321.841C34.8746 318.114 28.4179 311.978 22.3807 304.31C16.3436 296.642 11.8937 288.926 9.57194 282.662C8.41015 279.527 7.79089 276.783 7.7573 274.605C7.72355 272.416 8.27875 270.896 9.34263 270.059Z" fill="white" stroke="black"/>
<ellipse cx="31.828" cy="299.157" rx="1.65407" ry="3.8595" transform="rotate(-38.215 31.828 299.157)" fill="black"/>
<path d="M30.5585 296.649C31.3935 289.563 20.0325 276.876 9.47641 272.547" stroke="black" stroke-width="0.5" stroke-linecap="round"/>
<path d="M29.6909 297.331C24.6859 290.974 20.5466 288.391 14.7585 290.843" stroke="black" stroke-width="0.5" stroke-linecap="round"/>
<path d="M31.8617 299.83C31.0267 306.917 41.6134 319.511 52.1695 323.841" stroke="black" stroke-width="0.5" stroke-linecap="round"/>
<path d="M32.0963 299.195C37.5815 294.876 34.9434 286.177 29.394 280.021" stroke="black" stroke-width="0.5" stroke-linecap="round"/>
<path d="M33.3241 301.361C39.1842 308.804 44.3185 309.674 50.0148 307.996" stroke="black" stroke-width="0.5" stroke-linecap="round"/>
<path d="M30.7139 298.631C26.6583 299.719 25.4627 305.085 28.5578 310.153" stroke="black" stroke-width="0.5" stroke-linecap="round"/>
</svg>
