<svg width="64" height="274" viewBox="0 0 64 274" fill="none" xmlns="http://www.w3.org/2000/svg">
<rect x="10.4233" y="205.473" width="330.965" height="75.7266" transform="rotate(-38.215 10.4233 205.473)" fill="white" stroke="black"/>
<path d="M10.03 205.782C11.1949 204.865 12.949 204.67 15.2462 205.262C17.5341 205.852 20.2661 207.2 23.2685 209.218C29.2687 213.251 36.2534 219.89 42.7837 228.184C49.314 236.478 54.1285 244.825 56.641 251.604C57.8982 254.996 58.5683 257.969 58.6048 260.331C58.6414 262.703 58.0405 264.362 56.8756 265.28C55.7107 266.197 53.9573 266.391 51.6602 265.799C49.3723 265.209 46.6404 263.86 43.6379 261.842C37.6377 257.809 30.653 251.171 24.1227 242.877C17.5924 234.583 12.7779 226.235 10.2654 219.456C9.00816 216.064 8.33803 213.092 8.30157 210.73C8.26499 208.358 8.86528 206.699 10.03 205.782Z" fill="white" stroke="black"/>
<ellipse cx="34.3694" cy="237.275" rx="1.78866" ry="4.17353" transform="rotate(-38.215 34.3694 237.275)" fill="black"/>
<path d="M32.9939 234.564C33.8968 226.901 21.6115 213.182 10.1965 208.5" stroke="black" stroke-width="0.5" stroke-linecap="round"/>
<path d="M32.0571 235.303C26.6448 228.429 22.1687 225.636 15.9097 228.287" stroke="black" stroke-width="0.5" stroke-linecap="round"/>
<path d="M34.4071 238.007C33.5042 245.67 44.9523 259.289 56.3673 263.971" stroke="black" stroke-width="0.5" stroke-linecap="round"/>
<path d="M34.659 237.319C40.5905 232.649 37.7377 223.243 31.7368 216.585" stroke="black" stroke-width="0.5" stroke-linecap="round"/>
<path d="M35.9858 239.66C42.3228 247.708 47.8748 248.649 54.0345 246.834" stroke="black" stroke-width="0.5" stroke-linecap="round"/>
<path d="M33.1646 236.707C28.7789 237.884 27.4861 243.687 30.833 249.167" stroke="black" stroke-width="0.5" stroke-linecap="round"/>
</svg>
