<svg width="170" height="269" viewBox="0 0 170 269" fill="none" xmlns="http://www.w3.org/2000/svg">
<rect x="-0.101037" y="0.699851" width="330.965" height="75.7266" transform="matrix(-0.800888 0.598814 0.598814 0.800888 113.334 8.14345)" fill="white" stroke="black"/>
<path d="M114.234 8.34348C113.046 9.23129 112.404 10.8752 112.381 13.2474C112.359 15.6099 112.955 18.5979 114.127 22.0203C116.469 28.8599 121.074 37.3248 127.395 45.7792C133.716 54.2337 140.533 61.0446 146.431 65.226C149.382 67.3183 152.08 68.7348 154.352 69.3815C156.634 70.0308 158.392 69.8798 159.58 68.992C160.767 68.1042 161.408 66.4608 161.431 64.0887C161.454 61.7261 160.858 58.7382 159.686 55.3158C157.343 48.4762 152.738 40.0112 146.417 31.5568C140.096 23.1024 133.279 16.2915 127.381 12.11C124.43 10.0177 121.733 8.60119 119.46 7.95454C117.179 7.30532 115.421 7.4558 114.234 8.34348Z" fill="white" stroke="black"/>
<ellipse cx="1.78866" cy="4.17353" rx="1.78866" ry="4.17353" transform="matrix(-0.800888 0.598814 0.598814 0.800888 137.288 35.5911)" fill="black"/>
<path d="M136.091 37.9743C128.456 36.8632 118.384 21.4458 116.816 9.20801" stroke="black" stroke-width="0.5" stroke-linecap="round"/>
<path d="M137.048 37.2607C131.809 30.2537 130.269 25.2071 134.451 19.8476" stroke="black" stroke-width="0.5" stroke-linecap="round"/>
<path d="M139.051 40.2305C146.687 41.3416 156.879 55.9246 158.447 68.1624" stroke="black" stroke-width="0.5" stroke-linecap="round"/>
<path d="M138.322 40.2959C132.276 44.8166 123.928 39.6265 119.051 32.1069" stroke="black" stroke-width="0.5" stroke-linecap="round"/>
<path d="M140.24 42.1833C146.374 50.3874 145.845 55.9936 142.498 61.4739" stroke="black" stroke-width="0.5" stroke-linecap="round"/>
<path d="M138.118 38.6941C140.39 34.7624 146.329 35.0154 150.756 39.6667" stroke="black" stroke-width="0.5" stroke-linecap="round"/>
</svg>
