<svg width="408" height="651" viewBox="0 0 408 651" fill="none" xmlns="http://www.w3.org/2000/svg">
<rect x="23.4727" y="499.52" width="806.346" height="168.895" transform="rotate(-38.215 23.4727 499.52)" fill="white" stroke="black"/>
<path d="M23.0806 499.829C25.8756 497.629 29.9884 497.235 35.1563 498.567C40.3151 499.897 46.4294 502.925 53.1078 507.414C66.4596 516.388 81.97 531.136 96.458 549.537C110.946 567.938 121.643 586.476 127.234 601.56C130.03 609.106 131.539 615.76 131.621 621.086C131.704 626.423 130.356 630.328 127.561 632.529C124.766 634.729 120.654 635.123 115.486 633.791C110.327 632.461 104.212 629.433 97.5341 624.945C84.1823 615.97 68.6719 601.222 54.1839 582.821C39.6959 564.42 28.9988 545.882 23.4079 530.798C20.6114 523.253 19.1025 516.598 19.0204 511.272C18.9382 505.936 20.2856 502.03 23.0806 499.829Z" fill="white" stroke="black"/>
<ellipse cx="76.7853" cy="570.256" rx="4.11035" ry="9.59083" transform="rotate(-38.215 76.7853 570.256)" fill="black"/>
<path d="M73.6244 564.025C75.6994 546.416 47.4674 514.889 21.2355 504.131" stroke="black" stroke-linecap="round"/>
<path d="M71.4714 565.72C59.0339 549.924 48.7479 543.504 34.3644 549.598" stroke="black" stroke-linecap="round"/>
<path d="M76.868 571.935C74.793 589.544 101.101 620.841 127.333 631.6" stroke="black" stroke-linecap="round"/>
<path d="M77.4504 570.35C91.0812 559.618 84.5255 538.003 70.7354 522.703" stroke="black" stroke-linecap="round"/>
<path d="M80.5036 575.73C95.0659 594.226 107.824 596.387 121.98 592.217" stroke="black" stroke-linecap="round"/>
<path d="M74.0152 568.949C63.937 571.653 60.966 584.988 68.6573 597.582" stroke="black" stroke-linecap="round"/>
</svg>
