<svg width="620" height="806" viewBox="0 0 620 806" fill="none" xmlns="http://www.w3.org/2000/svg">
<g opacity="0.4">
<rect x="-0.702155" y="0.0835401" width="997.71" height="209.164" transform="matrix(-0.785695 -0.618614 -0.618614 0.785695 590.49 617.4)" fill="white" stroke="black"/>
<path d="M591.382 618.209C587.882 615.454 582.749 614.975 576.34 616.627C569.941 618.276 562.365 622.029 554.098 627.586C537.569 638.696 518.373 656.949 500.446 679.718C482.518 702.488 469.278 725.431 462.356 744.106C458.895 753.446 457.024 761.691 456.922 768.299C456.82 774.916 458.49 779.793 461.99 782.548C465.49 785.304 470.622 785.783 477.031 784.131C483.43 782.482 491.006 778.729 499.273 773.172C515.803 762.062 534.999 743.808 552.926 721.039C570.854 698.269 584.093 675.327 591.015 656.652C594.477 647.312 596.347 639.067 596.449 632.459C596.551 625.842 594.882 620.965 591.382 618.209Z" fill="white" stroke="black"/>
<ellipse cx="5.08462" cy="11.8641" rx="5.08462" ry="11.8641" transform="matrix(-0.785695 -0.618614 -0.618614 0.785695 536.217 699.253)" fill="black"/>
<path d="M528.793 697.722C526.226 675.939 561.15 636.94 593.6 623.631" stroke="black" stroke-linecap="round"/>
<path d="M531.456 699.819C546.842 680.279 559.566 672.337 577.359 679.875" stroke="black" stroke-linecap="round"/>
<path d="M524.781 707.506C527.348 729.289 494.804 768.005 462.354 781.313" stroke="black" stroke-linecap="round"/>
<path d="M524.06 705.546C507.198 692.27 515.308 665.532 532.367 646.605" stroke="black" stroke-linecap="round"/>
<path d="M520.283 712.202C502.269 735.081 486.487 737.755 468.976 732.596" stroke="black" stroke-linecap="round"/>
<path d="M528.31 703.814C540.777 707.158 544.452 723.653 534.938 739.232" stroke="black" stroke-linecap="round"/>
</g>
</svg>
