<svg width="408" height="651" viewBox="0 0 408 651" fill="none" xmlns="http://www.w3.org/2000/svg">
<g opacity="0.5">
<rect x="23.4728" y="499.52" width="806.346" height="168.895" transform="rotate(-38.215 23.4728 499.52)" fill="white" stroke="black"/>
<path d="M23.0806 499.829C25.8756 497.629 29.9884 497.235 35.1563 498.567C40.3151 499.897 46.4294 502.925 53.1078 507.414C66.4596 516.388 81.97 531.136 96.458 549.537C110.946 567.938 121.643 586.476 127.234 601.56C130.03 609.106 131.539 615.76 131.621 621.086C131.704 626.423 130.356 630.328 127.561 632.529C124.766 634.729 120.654 635.123 115.486 633.791C110.327 632.461 104.212 629.433 97.5341 624.945C84.1823 615.97 68.6719 601.222 54.1839 582.821C39.6959 564.42 28.9988 545.882 23.4079 530.798C20.6114 523.253 19.1025 516.598 19.0204 511.272C18.9382 505.936 20.2856 502.03 23.0806 499.829Z" fill="white" stroke="black"/>
<ellipse cx="76.7853" cy="570.256" rx="4.11035" ry="9.59083" transform="rotate(-38.215 76.7853 570.256)" fill="black"/>
<path d="M73.6244 564.025C75.6994 546.416 47.4675 514.889 21.2356 504.131" stroke="black" stroke-linecap="round"/>
<path d="M71.4715 565.72C59.034 549.924 48.7479 543.504 34.3645 549.598" stroke="black" stroke-linecap="round"/>
<path d="M76.868 571.935C74.793 589.544 101.101 620.841 127.333 631.6" stroke="black" stroke-linecap="round"/>
<path d="M77.4504 570.35C91.0812 559.618 84.5255 538.003 70.7354 522.703" stroke="black" stroke-linecap="round"/>
<path d="M80.5036 575.73C95.0659 594.226 107.824 596.387 121.98 592.217" stroke="black" stroke-linecap="round"/>
<path d="M74.0152 568.949C63.937 571.653 60.966 584.988 68.6573 597.582" stroke="black" stroke-linecap="round"/>
<rect x="354.423" y="445.473" width="330.965" height="75.7266" transform="rotate(-38.215 354.423 445.473)" fill="white" stroke="black"/>
<path d="M354.03 445.782C355.195 444.865 356.949 444.67 359.246 445.262C361.534 445.852 364.266 447.2 367.269 449.218C373.269 453.251 380.253 459.89 386.784 468.184C393.314 476.478 398.129 484.825 400.641 491.604C401.898 494.996 402.568 497.969 402.605 500.331C402.641 502.703 402.041 504.362 400.876 505.28C399.711 506.197 397.957 506.391 395.66 505.799C393.372 505.209 390.64 503.86 387.638 501.842C381.638 497.809 374.653 491.171 368.123 482.877C361.592 474.583 356.778 466.235 354.265 459.456C353.008 456.064 352.338 453.092 352.302 450.73C352.265 448.358 352.865 446.699 354.03 445.782Z" fill="white" stroke="black"/>
<ellipse cx="378.369" cy="477.275" rx="1.78866" ry="4.17353" transform="rotate(-38.215 378.369 477.275)" fill="black"/>
<path d="M376.994 474.564C377.897 466.901 365.612 453.182 354.197 448.5" stroke="black" stroke-width="0.5" stroke-linecap="round"/>
<path d="M376.057 475.303C370.645 468.429 366.169 465.636 359.91 468.287" stroke="black" stroke-width="0.5" stroke-linecap="round"/>
<path d="M378.407 478.007C377.504 485.67 388.952 499.289 400.367 503.971" stroke="black" stroke-width="0.5" stroke-linecap="round"/>
<path d="M378.659 477.319C384.591 472.649 381.738 463.243 375.737 456.585" stroke="black" stroke-width="0.5" stroke-linecap="round"/>
<path d="M379.986 479.66C386.323 487.708 391.875 488.649 398.035 486.834" stroke="black" stroke-width="0.5" stroke-linecap="round"/>
<path d="M377.165 476.707C372.779 477.884 371.486 483.687 374.833 489.167" stroke="black" stroke-width="0.5" stroke-linecap="round"/>
<rect x="255.735" y="288.75" width="434.677" height="69.9535" transform="rotate(-38.215 255.735 288.75)" fill="white" stroke="black"/>
<path d="M255.343 289.059C256.407 288.221 258.014 288.039 260.133 288.585C262.243 289.129 264.765 290.374 267.54 292.239C273.085 295.966 279.541 302.102 285.579 309.769C291.616 317.437 296.066 325.153 298.387 331.418C299.549 334.553 300.168 337.297 300.201 339.476C300.235 341.664 299.68 343.183 298.617 344.021C297.553 344.858 295.945 345.041 293.826 344.495C291.716 343.951 289.194 342.706 286.419 340.841C280.875 337.114 274.418 330.978 268.381 323.31C262.344 315.642 257.894 307.926 255.572 301.662C254.41 298.527 253.791 295.783 253.757 293.605C253.724 291.416 254.279 289.896 255.343 289.059Z" fill="white" stroke="black"/>
<ellipse cx="277.828" cy="318.157" rx="1.65407" ry="3.8595" transform="rotate(-38.215 277.828 318.157)" fill="black"/>
<path d="M276.559 315.649C277.394 308.563 266.033 295.876 255.476 291.547" stroke="black" stroke-width="0.5" stroke-linecap="round"/>
<path d="M275.691 316.331C270.686 309.974 266.547 307.391 260.758 309.843" stroke="black" stroke-width="0.5" stroke-linecap="round"/>
<path d="M277.862 318.83C277.027 325.917 287.613 338.511 298.169 342.841" stroke="black" stroke-width="0.5" stroke-linecap="round"/>
<path d="M278.096 318.195C283.581 313.876 280.943 305.177 275.394 299.021" stroke="black" stroke-width="0.5" stroke-linecap="round"/>
<path d="M279.324 320.361C285.184 327.804 290.318 328.674 296.015 326.996" stroke="black" stroke-width="0.5" stroke-linecap="round"/>
<path d="M276.714 317.631C272.658 318.719 271.463 324.085 274.558 329.153" stroke="black" stroke-width="0.5" stroke-linecap="round"/>
</g>
</svg>
